<svg width="100%" height="100%" viewBox="0 0 33 33" fill="none" xmlns="http://www.w3.org/2000/svg">
<path d="M28.3311 5.57709C25.6612 2.95498 22.1841 1.35087 18.4276 0.98069C18.1482 0.98069 17.9309 1.22748 17.9309 1.53596C17.9309 1.65935 17.962 1.7519 18.0551 1.84444L23.8916 7.55138C23.8916 7.64393 23.8916 7.64393 23.7985 7.64393C22.1841 6.47169 20.2904 5.76218 18.3345 5.57709C18.1482 5.54624 17.993 5.66964 17.962 5.85473C17.962 5.94727 17.993 6.03982 18.0551 6.13236L22.0289 10.0809C22.0289 10.0809 22.0289 10.1735 21.9358 10.0809C20.8492 9.40228 19.6384 8.97041 18.3345 8.84701C18.1482 8.84701 18.0551 9.0321 18.1482 9.21719L24.8541 15.8804C25.0403 16.0655 25.3197 15.8804 25.2266 15.6953C25.1335 14.4306 24.6988 13.1966 23.9848 12.1169C23.8916 12.1169 23.9848 12.0244 23.9848 12.1169L27.8655 15.8804C28.0517 16.0655 28.4243 15.8804 28.4243 15.6028C28.207 13.6285 27.4929 11.7159 26.3442 10.0809C26.2511 10.0809 26.3442 9.9884 26.3442 10.0809L32.2118 15.7879C32.3671 15.973 32.6154 16.0038 32.8017 15.8804C32.9569 15.7879 33.019 15.6028 32.9569 15.4177C32.6154 11.6851 30.97 8.1992 28.3311 5.57709Z" fill="currentColor"/>
<path d="M5.60649 5.57713C8.30745 2.98587 11.7845 1.35091 15.51 0.980728C15.7894 0.980728 16.0067 1.16582 16.0378 1.44345C16.0378 1.56685 16.0067 1.72109 15.8825 1.81363L10.1391 7.55142C10.046 7.64397 10.1391 7.64397 10.1391 7.64397C11.7845 6.47173 13.7094 5.76222 15.6963 5.57713C15.9757 5.57713 16.162 5.94731 15.9757 6.1324L12.0329 10.081C11.9398 10.081 12.0329 10.1735 12.0329 10.081C13.1195 9.40232 14.3303 9.00129 15.6342 8.84705C15.8205 8.84705 16.0067 9.03214 15.8205 9.21723L9.08358 15.8805C8.89731 16.0656 8.71104 15.8805 8.71104 15.6954C8.83522 14.4306 9.3009 13.1967 10.046 12.117C10.046 12.117 9.95286 12.0244 9.95286 12.117L6.16531 15.8805C5.8859 16.0656 5.51335 15.8805 5.60649 15.6028C5.79276 13.5977 6.50681 11.6851 7.68654 10.081C7.68654 10.081 7.5934 9.98844 7.5934 10.081L1.81894 15.7879C1.44639 16.1581 0.980713 15.8805 0.980713 15.4177C1.35326 11.7159 2.99867 8.26093 5.60649 5.57713Z" fill="currentColor"/>
<path d="M5.60649 28.3741C8.24535 31.027 11.7535 32.662 15.51 32.9705C15.7584 33.0013 15.9757 32.8471 16.0067 32.6003C16.0378 32.446 15.9757 32.3226 15.8825 32.1993L10.1391 26.3998C10.046 26.3998 10.1391 26.3072 10.1391 26.3998C11.7845 27.572 13.7094 28.2815 15.6963 28.4358C15.9757 28.4358 16.162 28.0656 15.9757 27.8805L12.0329 23.9627C11.9398 23.8702 12.0329 23.8702 12.0329 23.8702C13.0884 24.5797 14.3303 25.0424 15.6031 25.1658C15.7894 25.1658 15.9757 24.8882 15.7894 24.7957L9.08358 18.1324C8.89731 17.9473 8.71104 18.0399 8.71104 18.3175C8.83522 19.5823 9.3009 20.8162 10.046 21.8959C10.046 21.8959 9.95286 21.9885 9.95286 21.8959L6.16531 18.1324C5.8859 17.9473 5.51335 18.0399 5.60649 18.41C5.79276 20.3843 6.50681 22.2661 7.68654 23.8394C7.68654 23.9011 7.65549 23.9319 7.5934 23.9319L1.81894 18.1324C1.60162 17.9473 1.26012 18.009 1.10489 18.225C1.0428 18.3175 1.01176 18.4101 0.980713 18.5334C1.32221 22.2352 2.96762 25.7211 5.60649 28.3741Z" fill="currentColor"/>
<path d="M28.3322 28.3741C25.6933 31.0579 22.1852 32.6929 18.4287 32.9705C18.0561 33.063 17.7767 32.5078 18.0561 32.2301L23.8927 26.4306C23.8927 26.4306 23.8927 26.3381 23.7995 26.4306C22.1852 27.6029 20.2914 28.3124 18.3355 28.4975C18.1493 28.5283 17.994 28.3741 17.963 28.189C17.963 28.0965 17.994 28.0039 18.0561 27.9114L22.03 23.9628C22.03 23.8702 22.03 23.8702 21.9368 23.8702C20.8813 24.6106 19.6395 25.0733 18.3666 25.1659C18.2114 25.135 18.1182 25.0116 18.1493 24.8882C18.1493 24.8574 18.1493 24.8265 18.1803 24.7957L24.8861 18.1324C25.0724 17.9474 25.3518 18.0399 25.2587 18.3175C25.1655 19.5823 24.7309 20.8162 24.0169 21.8959C23.9237 21.8959 24.0169 21.9885 24.0169 21.8959L27.8976 18.1324C28.0217 18.009 28.2391 18.009 28.3632 18.1324C28.4253 18.1941 28.4564 18.3175 28.4564 18.4101C28.2391 20.3535 27.525 22.2353 26.3763 23.8394C26.2832 23.9319 26.3763 23.9319 26.3763 23.9319L32.2129 18.1324C32.4923 17.8548 33.0511 18.1324 32.958 18.5026C32.6475 22.2353 31.0021 25.7211 28.3322 28.3741Z" fill="currentColor"/>
</svg>
